<?xml version="1.0" standalone="no"?>
<!DOCTYPE svg PUBLIC "-//W3C//DTD SVG 20010904//EN"
 "http://www.w3.org/TR/2001/REC-SVG-20010904/DTD/svg10.dtd">
<svg version="1.0" xmlns="http://www.w3.org/2000/svg"
 width="700.000000pt" height="700.000000pt" viewBox="0 0 700.000000 700.000000"
 preserveAspectRatio="xMidYMid meet">
<metadata>
Created by potrace 1.14, written by Peter Selinger 2001-2017
</metadata>
<g transform="translate(0.000000,700.000000) scale(0.100000,-0.100000)"
fill="#000000" stroke="none">
<path d="M2845 5792 c-7 -36 -11 -58 -19 -115 -4 -27 -9 -59 -12 -70 -2 -12
-7 -42 -10 -67 -3 -25 -7 -52 -9 -60 -2 -8 -7 -35 -10 -60 -3 -25 -12 -83 -20
-130 -8 -47 -17 -103 -20 -125 -2 -22 -7 -51 -9 -65 -5 -28 -14 -86 -22 -140
-2 -19 -7 -44 -9 -55 -4 -21 -65 -411 -65 -418 0 -3 -395 -5 -877 -5 -847 -1
-881 -1 -955 -21 -247 -64 -470 -270 -546 -502 -12 -35 -32 -134 -46 -219 -37
-230 -37 -233 -41 -260 -2 -14 -6 -38 -9 -55 -3 -16 -7 -48 -11 -70 -3 -23 -7
-52 -10 -65 -3 -14 -7 -45 -10 -69 -3 -24 -7 -46 -9 -50 -3 -4 -8 -36 -11 -71
-4 -36 -8 -67 -10 -70 -2 -3 -6 -30 -10 -60 -3 -30 -8 -62 -10 -70 -3 -8 -11
-60 -20 -115 -8 -55 -17 -111 -19 -125 -2 -14 -10 -59 -16 -100 -6 -41 -14
-86 -17 -100 -3 -14 -6 -72 -8 -130 -2 -89 1 -116 21 -177 56 -172 183 -296
359 -349 57 -18 139 -19 1540 -18 1377 0 1484 1 1543 17 224 62 424 229 517
432 41 90 52 137 80 330 3 22 12 78 20 125 13 76 34 211 49 310 3 19 7 44 10
55 2 11 7 40 10 65 3 25 8 54 10 65 2 11 7 43 10 70 4 28 9 57 11 65 2 8 6 35
9 60 3 25 8 56 11 70 2 13 7 42 10 65 3 22 8 47 10 55 3 13 9 49 20 137 4 26
15 98 21 128 2 11 7 40 10 65 3 25 7 52 9 60 3 8 9 47 15 85 12 83 15 105 40
255 10 63 21 135 25 160 3 25 15 97 25 160 11 63 22 135 25 160 3 25 10 70 15
100 5 30 12 73 15 95 4 22 8 47 10 55 2 8 7 35 10 60 3 25 17 117 31 205 14
88 27 171 29 185 8 48 15 95 20 120 2 14 7 45 10 70 3 25 8 58 11 73 3 16 7
39 8 52 l3 23 -863 0 -863 0 -6 -26z m-288 -1815 c1 -2 -4 -41 -12 -88 -8 -46
-18 -104 -21 -129 -6 -46 -8 -60 -18 -120 -18 -102 -37 -223 -41 -253 -2 -16
-6 -40 -9 -55 -3 -15 -8 -45 -11 -67 -6 -41 -9 -58 -25 -155 -5 -30 -12 -75
-15 -100 -3 -25 -11 -72 -16 -105 -6 -33 -13 -72 -15 -87 -7 -51 -12 -83 -18
-113 -6 -36 -55 -351 -59 -382 -2 -12 -7 -26 -11 -30 -4 -4 -133 -8 -287 -8
-313 0 -287 -8 -270 81 5 27 12 69 16 94 3 25 15 97 25 160 11 63 22 135 25
160 3 25 12 81 20 125 7 44 16 100 20 125 3 25 13 83 21 130 8 46 16 101 19
120 2 20 18 119 34 220 43 265 61 379 68 425 3 22 8 43 11 47 4 4 32 8 62 10
66 4 502 -1 507 -5z"/>
<path d="M5283 4482 c-25 -2 -37 -12 -55 -40 -43 -72 -481 -778 -503 -812 -12
-19 -67 -107 -121 -195 -54 -88 -103 -167 -110 -175 -10 -12 -8 -35 7 -110 10
-52 21 -110 24 -129 3 -18 15 -81 26 -140 24 -123 47 -245 54 -281 3 -14 9
-47 15 -75 5 -27 12 -65 15 -82 3 -18 14 -77 24 -130 11 -54 22 -109 24 -123
3 -14 12 -65 22 -115 9 -49 19 -101 21 -115 3 -14 11 -57 19 -97 8 -40 15 -74
15 -76 0 -2 394 -3 875 -3 481 0 875 1 875 2 0 2 -27 110 -59 241 -48 192
-102 410 -126 513 -2 8 -20 80 -40 160 -20 80 -38 152 -40 160 -2 8 -15 60
-29 115 -13 55 -27 111 -29 125 -3 14 -8 37 -12 51 -5 19 1 37 23 70 34 51
147 229 477 749 297 470 292 461 310 484 8 11 13 22 10 24 -5 5 -1662 9 -1712
4z"/>
</g>
</svg>
